<svg width="1335" height="579" viewBox="0 0 1335 579" fill="none" xmlns="http://www.w3.org/2000/svg">
<path d="M548 241.416C548 354.238 342.951 433.372 342.951 518.5C322.5 453.5 100.624 446.113 27.6558 329.381C-45.3128 212.649 41.8676 113.821 107.552 106.526C173.237 99.2315 261.521 172.34 290.567 280.487C319.757 171.051 377.992 101.972 432.511 107.9C487.029 113.827 548 176.473 548 241.416ZM86.0292 323.46C122.501 385.804 323.892 467.317 338.5 496.5C359 435.83 443.887 339.995 458.22 303.516C472.553 267.037 450.922 195.349 399.839 184.841C348.757 174.332 305.543 223.032 290.567 319.821C276.353 223.032 180.913 170.248 137.128 184.841C93.3428 199.433 49.5576 261.117 86.0292 323.46Z" fill="#FDFDFD"/>
<path d="M289.112 0.985336C275.445 6.08705 261.763 27.0688 253.937 54.9513C250.451 67.4593 248.749 78.2593 248.185 91.5259C247.533 107.328 249.533 121.676 259.721 174.641L260.627 179.283L250.164 190.432C225.633 216.597 216.077 227.592 205.582 241.817C188.489 264.991 178.981 285.667 175.531 307.222C172.325 327.235 175.357 352.829 183.386 373.623C197.339 409.64 223.555 433.661 257.366 441.476C266.127 443.525 272.227 444.178 282.858 444.246C293.49 444.315 302.513 443.419 311.606 441.436C314.999 440.692 316.765 440.432 316.862 440.747C317.295 442.006 322.405 469.325 324.443 480.913C330.107 513.424 330.742 525.31 327.315 536.143C322.774 550.526 311.751 560.871 296.389 565.236C290.787 566.836 280.755 567.253 275.691 566.083C268.436 564.412 262.866 560.582 260.177 555.386C259.33 553.818 258.802 552.381 258.936 552.242C259.07 552.104 260.515 551.669 262.189 551.321C270.873 549.3 278.79 542.86 282.54 534.645C284.632 529.991 285.259 527.129 285.16 521.973C284.928 509.807 277.414 499.319 265.746 494.927C248.496 488.425 229.831 498.282 224.548 516.615C222.036 525.395 221.947 537.385 224.297 543.901C231.39 563.264 257.481 578.329 285.204 578.977C312.11 579.639 332.251 566.225 339.659 542.649C342.527 533.455 343.622 521.762 342.55 510.834C341.363 498.641 337.035 474.203 331.148 446.627L328.956 436.49L330.351 435.83C342.999 429.707 349.682 425.191 356.993 417.903C359.801 415.09 363.446 410.904 365.083 408.61C384.25 382.23 385.887 344.287 369.197 314.791C365.813 308.838 361.204 303 355.697 297.721C346.211 288.628 336.115 283.301 323.346 280.694C317.553 279.493 305.058 279.369 298.629 280.487C296.048 280.944 293.874 281.257 293.781 281.168C293.689 281.079 285.899 246.663 282.917 233.193L281.125 224.993L286.595 218.872C305.547 197.925 316.812 178.844 324.002 155.679C330.678 134.198 333.015 113.84 331.993 86.4879C331.332 68.4944 329.748 56.9427 326.079 43.214C317.761 12.0204 303.457 -4.31028 289.112 0.985336ZM307.259 52.0335C313.082 54.863 316.504 62.7602 317.242 75.2328C318.092 88.8344 315.421 101.191 308.656 115.662C301.888 129.997 291.806 144.44 275.754 162.617L269.885 169.289L269.284 166.36C268.281 161.403 266.09 146.605 265.482 140.916C264.868 134.911 265.155 123.776 266.166 114.889C268.801 91.1324 276.503 70.9886 287.322 59.4717C294.313 52.0995 301.665 49.3353 307.259 52.0335ZM273.711 241.196C274.605 245.16 277.095 256.604 279.284 266.606C283.314 284.942 283.371 285.529 281.737 285.605C281.51 285.61 279.125 286.786 276.426 288.195C259.603 296.931 246.881 311.108 240.395 328.288C235.9 340.318 235.582 354.575 239.578 366.397C241.07 370.757 244.652 377.52 247.636 381.535C252.392 387.959 260.895 395.533 268.893 400.448C272.893 402.905 282.57 407.742 283.478 407.725C283.842 407.718 284.556 407.071 285.087 406.337L286.015 404.962L281.017 400.171C270.192 389.927 263.994 379.368 261.863 367.736C260.952 362.822 260.851 359.929 261.449 355.529C263.07 342.921 269.767 332.026 280.217 324.949C283.088 323.04 289.477 319.841 290.567 319.821C290.794 319.816 291.574 322.606 292.275 325.986C293.022 329.41 295.96 342.927 298.846 356.082C305.815 387.98 314.203 427.587 313.98 427.773C313.891 427.91 311.904 428.491 309.554 429.124C295.364 433.014 279.379 433.319 265.278 429.969C239.769 423.941 220.42 409.833 209.625 389.318C203.025 376.732 199.834 361.863 200 344.396C200.146 328.287 202.572 317.338 208.858 303.962C214.357 292.185 220.286 283.883 232.087 271.442C236.139 267.158 243.541 259.913 248.541 255.294C269.48 236.074 271.98 233.809 272.073 233.898C272.119 233.942 272.863 237.231 273.711 241.196ZM314.399 318.868C326.537 321.758 337.092 329.7 344.266 341.416C349.987 350.763 352.911 361.158 353.135 372.916C353.388 388.52 348.773 401.366 338.894 412.186C335.156 416.239 326.742 422.869 326.048 422.204C325.816 421.982 324.974 418.288 318.173 388.061C312.464 362.654 302.603 319.681 302.217 318.512C301.929 317.704 302.11 317.655 306.384 317.845C308.884 317.933 312.482 318.407 314.399 318.868Z" fill="#FDFDFD"/>
<path d="M751.3 305.32C751.54 310.12 752.26 314.14 753.46 317.38C754.66 320.62 756.58 323.56 759.22 326.2L757.78 328H726.46L725.2 324.76C729.16 323.68 731.68 322.6 732.76 321.52C733.96 320.44 734.56 318.46 734.56 315.58C734.56 314.02 733.6 299.44 731.68 271.84L730.6 256.18L706.3 325.3H701.26L677.14 256.72L674.62 297.76C674.14 303.52 673.9 307.54 673.9 309.82C673.9 312.94 674.26 315.7 674.98 318.1C675.82 320.38 677.32 323.08 679.48 326.2L677.86 328H657.88L656.8 324.76C659.92 323.8 662.14 322.96 663.46 322.24C664.9 321.52 665.86 320.5 666.34 319.18C666.94 317.86 667.36 315.82 667.6 313.06L669.76 278.5C670.36 270.46 670.66 265.18 670.66 262.66C670.66 258.58 670.18 255.58 669.22 253.66C668.38 251.74 666.4 249.28 663.28 246.28L664.54 243.94H690.82L709.36 299.92L728.98 243.94H752.2L754 245.92C751.72 249.28 750.16 252.04 749.32 254.2C748.6 256.36 748.24 259.18 748.24 262.66C748.24 264.94 748.48 268.48 748.96 273.28L751.3 305.32ZM776.79 324.76C779.55 324.04 781.53 323.32 782.73 322.6C784.05 321.76 784.89 320.68 785.25 319.36C785.73 317.92 785.97 315.82 785.97 313.06V266.26C785.97 260.5 785.49 256.48 784.53 254.2C783.69 251.8 781.53 249.16 778.05 246.28L779.67 243.94H810.09L811.35 246.82C807.87 248.86 805.65 250.78 804.69 252.58C803.73 254.26 803.25 257.32 803.25 261.76V306.04C803.25 311.68 803.67 315.7 804.51 318.1C805.47 320.38 807.63 322.96 810.99 325.84L809.55 328H778.05L776.79 324.76ZM905.661 292L904.221 293.98C902.541 296.14 901.401 298.48 900.801 301C900.321 303.52 900.081 307.36 900.081 312.52V328L898.281 328.72L888.921 323.86C883.041 327.7 876.441 329.62 869.121 329.62C857.121 329.62 847.581 325.72 840.501 317.92C833.541 310.12 830.061 299.62 830.061 286.42C830.061 272.86 833.841 262.12 841.401 254.2C849.081 246.28 859.401 242.32 872.361 242.32C880.641 242.32 887.361 243.94 892.521 247.18C897.801 250.3 900.441 254.44 900.441 259.6C900.441 264.64 898.341 268.6 894.141 271.48C889.941 274.36 884.661 275.8 878.301 275.8C879.981 273.76 881.301 271.6 882.261 269.32C883.221 266.92 883.701 263.86 883.701 260.14C883.701 256.06 882.501 252.82 880.101 250.42C877.701 247.9 874.701 246.64 871.101 246.64C864.381 246.64 858.981 250.3 854.901 257.62C850.941 264.82 848.961 274.42 848.961 286.42C848.961 293.5 849.981 299.86 852.021 305.5C854.181 311.02 857.121 315.34 860.841 318.46C864.561 321.58 868.821 323.14 873.621 323.14C877.221 323.14 880.701 322.48 884.061 321.16V304.96C884.061 302.2 883.821 300.22 883.341 299.02C882.861 297.7 881.961 296.68 880.641 295.96C879.321 295.12 877.161 294.28 874.161 293.44L875.241 290.02H904.221L905.661 292ZM941.462 257.8C941.462 262.6 943.142 266.56 946.502 269.68C949.862 272.68 954.902 276.1 961.622 279.94C966.542 282.7 970.442 285.1 973.322 287.14C976.202 289.18 978.662 291.76 980.702 294.88C982.742 298 983.762 301.6 983.762 305.68C983.762 313.12 980.762 319 974.762 323.32C968.882 327.52 960.962 329.62 951.002 329.62C942.482 329.62 935.582 328 930.302 324.76C925.142 321.52 922.562 317.14 922.562 311.62C922.562 308.02 923.762 305.2 926.162 303.16C928.682 301 931.802 299.92 935.522 299.92C938.402 299.92 941.162 300.64 943.802 302.08C940.082 304 938.222 307.78 938.222 313.42C938.222 316.78 939.422 319.66 941.822 322.06C944.342 324.34 947.702 325.48 951.902 325.48C956.222 325.48 959.582 324.28 961.982 321.88C964.502 319.48 965.762 316.48 965.762 312.88C965.762 308.68 964.202 305.26 961.082 302.62C958.082 299.86 953.462 296.68 947.222 293.08C942.302 290.44 938.222 287.98 934.982 285.7C931.862 283.42 929.222 280.6 927.062 277.24C924.902 273.88 923.822 269.92 923.822 265.36C923.822 258.52 926.702 253 932.462 248.8C938.342 244.48 945.962 242.32 955.322 242.32C963.362 242.32 969.902 243.88 974.942 247C979.982 250 982.502 254.02 982.502 259.06C982.502 262.3 981.422 264.88 979.262 266.8C977.102 268.6 974.162 269.5 970.442 269.5C967.802 269.5 965.042 268.84 962.162 267.52C963.722 266.32 964.922 264.82 965.762 263.02C966.602 261.22 967.022 259.36 967.022 257.44C967.022 254.44 965.942 251.92 963.782 249.88C961.622 247.72 958.442 246.64 954.242 246.64C950.162 246.64 946.982 247.72 944.702 249.88C942.542 252.04 941.462 254.68 941.462 257.8ZM1071.55 270.22C1071.55 275.38 1070.29 279.94 1067.77 283.9C1065.37 287.74 1062.13 290.68 1058.05 292.72C1054.09 294.76 1049.89 295.78 1045.45 295.78C1040.77 295.78 1036.33 294.58 1032.13 292.18L1032.49 290.56L1035.55 290.74L1038.61 290.56C1043.29 289.84 1046.95 287.74 1049.59 284.26C1052.23 280.66 1053.55 275.92 1053.55 270.04C1053.55 263.44 1052.05 257.92 1049.05 253.48C1046.17 248.92 1042.15 246.64 1036.99 246.64C1034.23 246.64 1032.19 247.42 1030.87 248.98C1029.67 250.54 1029.07 252.28 1029.07 254.2V304.42C1029.07 309.22 1029.43 313 1030.15 315.76C1030.99 318.52 1032.43 321.28 1034.47 324.04L1035.91 326.2L1034.47 328H1003.15L1001.89 324.76C1005.01 323.92 1007.17 323.14 1008.37 322.42C1009.69 321.7 1010.59 320.68 1011.07 319.36C1011.55 318.04 1011.79 315.94 1011.79 313.06V265.18C1011.79 260.98 1011.43 257.8 1010.71 255.64C1010.11 253.36 1008.61 251.5 1006.21 250.06L1004.05 248.8L1004.77 246.46C1008.25 245.38 1012.75 244.42 1018.27 243.58C1023.91 242.74 1029.25 242.32 1034.29 242.32C1046.53 242.32 1055.77 244.9 1062.01 250.06C1068.37 255.1 1071.55 261.82 1071.55 270.22ZM1126.78 329.62C1114.3 329.62 1104.4 325.72 1097.08 317.92C1089.76 310.12 1086.1 299.5 1086.1 286.06C1086.1 272.62 1089.76 262 1097.08 254.2C1104.4 246.28 1114.3 242.32 1126.78 242.32C1139.26 242.32 1149.16 246.28 1156.48 254.2C1163.92 262 1167.64 272.62 1167.64 286.06C1167.64 299.38 1163.92 310 1156.48 317.92C1149.16 325.72 1139.26 329.62 1126.78 329.62ZM1126.24 325.48C1130.68 325.48 1134.58 323.86 1137.94 320.62C1141.42 317.26 1144.12 312.64 1146.04 306.76C1147.96 300.88 1148.92 294.1 1148.92 286.42C1148.92 278.74 1147.96 271.84 1146.04 265.72C1144.24 259.6 1141.66 254.86 1138.3 251.5C1135.06 248.02 1131.34 246.28 1127.14 246.28C1122.7 246.28 1118.74 248.02 1115.26 251.5C1111.78 254.86 1109.08 259.66 1107.16 265.9C1105.24 272.02 1104.28 279.04 1104.28 286.96C1104.28 298.6 1106.26 307.96 1110.22 315.04C1114.18 322 1119.52 325.48 1126.24 325.48ZM1224.91 313.06C1224.91 315.82 1225.15 317.92 1225.63 319.36C1226.23 320.68 1227.19 321.7 1228.51 322.42C1229.83 323.14 1231.99 323.92 1234.99 324.76L1233.73 328H1202.41L1200.97 326.2L1202.41 324.04C1204.45 321.28 1205.83 318.52 1206.55 315.76C1207.39 312.88 1207.75 309.1 1207.63 304.42V256C1207.63 253 1207.33 251.02 1206.73 250.06C1206.25 248.98 1205.23 248.44 1203.67 248.44H1201.69C1197.61 248.44 1194.55 249.7 1192.51 252.22C1190.47 254.62 1188.37 259 1186.21 265.36L1182.61 264.1V241.6L1184.41 239.98L1186.57 241.6C1188.85 243.16 1193.29 243.94 1199.89 243.94H1232.83C1239.43 243.94 1243.87 243.16 1246.15 241.6L1248.31 239.98L1250.29 241.6V264.1L1246.51 265.36C1244.23 258.76 1242.07 254.32 1240.03 252.04C1238.11 249.64 1235.17 248.44 1231.21 248.44H1228.87C1227.31 248.44 1226.23 248.98 1225.63 250.06C1225.15 251.02 1224.91 253 1224.91 256V313.06ZM1332.79 245.92L1330.99 247.9C1327.75 251.86 1324.99 256 1322.71 260.32L1306.33 291.64V313.06C1306.33 315.82 1306.57 317.92 1307.05 319.36C1307.65 320.68 1308.61 321.7 1309.93 322.42C1311.25 323.14 1313.35 323.92 1316.23 324.76L1315.15 328H1283.65L1282.21 326.2L1283.65 324.04C1285.69 321.4 1287.07 318.7 1287.79 315.94C1288.63 313.06 1289.05 309.22 1289.05 304.42V292L1271.95 260.68C1270.03 256.84 1268.23 253.9 1266.55 251.86C1264.87 249.7 1262.77 247.72 1260.25 245.92L1261.87 243.94H1294.81L1295.71 247.18L1293.01 247.9C1289.53 248.62 1287.79 250 1287.79 252.04C1287.79 252.76 1288.09 253.78 1288.69 255.1C1289.29 256.42 1290.19 258.22 1291.39 260.5L1303.63 283.54L1316.59 258.88C1317.55 257.32 1318.03 255.76 1318.03 254.2C1318.03 252.64 1317.55 251.32 1316.59 250.24C1315.63 249.04 1314.43 248.26 1312.99 247.9L1309.57 247.18L1310.65 243.94H1331.35L1332.79 245.92Z" fill="#FDFDFD"/>
</svg>
