<svg width="1222" height="579" viewBox="0 0 1222 579" fill="none" xmlns="http://www.w3.org/2000/svg">
<path d="M548 241.416C548 354.238 342.951 433.372 342.951 518.5C322.5 453.5 100.624 446.113 27.6558 329.381C-45.3128 212.649 41.8676 113.821 107.552 106.526C173.237 99.2315 261.521 172.34 290.567 280.487C319.757 171.051 377.992 101.972 432.511 107.9C487.029 113.827 548 176.473 548 241.416ZM86.0292 323.46C122.501 385.804 323.892 467.317 338.5 496.5C359 435.83 443.887 339.995 458.22 303.516C472.553 267.037 450.922 195.349 399.839 184.841C348.757 174.332 305.543 223.032 290.567 319.821C276.353 223.032 180.913 170.248 137.128 184.841C93.3428 199.433 49.5576 261.117 86.0292 323.46Z" fill="#FDFDFD"/>
<path d="M289.112 0.985336C275.445 6.08705 261.763 27.0688 253.937 54.9513C250.451 67.4593 248.749 78.2593 248.185 91.5259C247.533 107.328 249.533 121.676 259.721 174.641L260.627 179.283L250.164 190.432C225.633 216.597 216.077 227.592 205.582 241.817C188.489 264.991 178.981 285.667 175.531 307.222C172.325 327.235 175.357 352.829 183.386 373.623C197.339 409.64 223.555 433.661 257.366 441.476C266.127 443.525 272.227 444.178 282.858 444.246C293.49 444.315 302.513 443.419 311.606 441.436C314.999 440.692 316.765 440.432 316.862 440.747C317.295 442.006 322.405 469.325 324.443 480.913C330.107 513.424 330.742 525.31 327.315 536.143C322.774 550.526 311.751 560.871 296.389 565.236C290.787 566.836 280.755 567.253 275.691 566.083C268.436 564.412 262.866 560.582 260.177 555.386C259.33 553.818 258.802 552.381 258.936 552.242C259.07 552.104 260.515 551.669 262.189 551.321C270.873 549.3 278.79 542.86 282.54 534.645C284.632 529.991 285.259 527.129 285.16 521.973C284.928 509.807 277.414 499.319 265.746 494.927C248.496 488.425 229.831 498.282 224.548 516.615C222.036 525.395 221.947 537.385 224.297 543.901C231.39 563.264 257.481 578.329 285.204 578.977C312.11 579.639 332.251 566.225 339.659 542.649C342.527 533.455 343.622 521.762 342.55 510.834C341.363 498.641 337.035 474.203 331.148 446.627L328.956 436.49L330.351 435.83C342.999 429.707 349.682 425.191 356.993 417.903C359.801 415.09 363.446 410.903 365.083 408.61C384.25 382.23 385.887 344.287 369.197 314.791C365.813 308.838 361.204 303 355.697 297.721C346.211 288.628 336.115 283.301 323.346 280.694C317.553 279.493 305.058 279.369 298.629 280.487C296.048 280.944 293.874 281.257 293.781 281.168C293.689 281.079 285.899 246.663 282.917 233.193L281.125 224.993L286.595 218.872C305.547 197.925 316.813 178.844 324.002 155.679C330.678 134.198 333.015 113.84 331.993 86.4879C331.332 68.4944 329.748 56.9427 326.079 43.214C317.761 12.0204 303.457 -4.31028 289.112 0.985336ZM307.259 52.0335C313.082 54.863 316.504 62.7602 317.242 75.2328C318.092 88.8344 315.42 101.191 308.656 115.662C301.888 129.997 291.806 144.44 275.754 162.617L269.885 169.289L269.284 166.36C268.281 161.403 266.09 146.605 265.482 140.916C264.868 134.911 265.155 123.776 266.166 114.889C268.801 91.1324 276.503 70.9886 287.322 59.4717C294.313 52.0996 301.665 49.3353 307.259 52.0335ZM273.711 241.196C274.605 245.16 277.095 256.604 279.284 266.606C283.314 284.942 283.371 285.529 281.737 285.605C281.51 285.61 279.125 286.786 276.426 288.195C259.603 296.931 246.881 311.108 240.395 328.288C235.9 340.318 235.582 354.575 239.578 366.397C241.07 370.757 244.652 377.52 247.636 381.535C252.392 387.959 260.895 395.533 268.893 400.448C272.893 402.905 282.57 407.742 283.478 407.725C283.842 407.718 284.556 407.071 285.087 406.337L286.015 404.962L281.017 400.171C270.192 389.927 263.994 379.368 261.863 367.736C260.952 362.822 260.851 359.929 261.449 355.529C263.07 342.921 269.767 332.026 280.217 324.949C283.088 323.04 289.477 319.841 290.567 319.821C290.794 319.816 291.574 322.606 292.275 325.986C293.022 329.41 295.96 342.927 298.846 356.082C305.815 387.98 314.203 427.587 313.98 427.773C313.891 427.91 311.904 428.491 309.554 429.124C295.364 433.014 279.379 433.319 265.278 429.969C239.769 423.941 220.42 409.833 209.625 389.318C203.025 376.731 199.834 361.863 200 344.396C200.146 328.287 202.572 317.338 208.858 303.962C214.357 292.185 220.286 283.883 232.087 271.442C236.139 267.158 243.541 259.913 248.541 255.294C269.48 236.074 271.98 233.809 272.073 233.898C272.119 233.942 272.863 237.231 273.711 241.196ZM314.399 318.868C326.537 321.758 337.092 329.7 344.266 341.416C349.987 350.763 352.911 361.158 353.135 372.916C353.388 388.52 348.773 401.366 338.894 412.186C335.156 416.239 326.742 422.869 326.048 422.204C325.817 421.982 324.974 418.288 318.173 388.061C312.464 362.654 302.603 319.681 302.217 318.512C301.929 317.704 302.11 317.655 306.384 317.845C308.884 317.933 312.482 318.407 314.399 318.868Z" fill="#FDFDFD"/>
<path d="M735.25 328.1C735.45 332.1 736.05 335.45 737.05 338.15C738.05 340.85 739.65 343.3 741.85 345.5L740.65 347H714.55L713.5 344.3C716.8 343.4 718.9 342.5 719.8 341.6C720.8 340.7 721.3 339.05 721.3 336.65C721.3 335.35 720.5 323.2 718.9 300.2L718 287.15L697.75 344.75H693.55L673.45 287.6L671.35 321.8C670.95 326.6 670.75 329.95 670.75 331.85C670.75 334.45 671.05 336.75 671.65 338.75C672.35 340.65 673.6 342.9 675.4 345.5L674.05 347H657.4L656.5 344.3C659.1 343.5 660.95 342.8 662.05 342.2C663.25 341.6 664.05 340.75 664.45 339.65C664.95 338.55 665.3 336.85 665.5 334.55L667.3 305.75C667.8 299.05 668.05 294.65 668.05 292.55C668.05 289.15 667.65 286.65 666.85 285.05C666.15 283.45 664.5 281.4 661.9 278.9L662.95 276.95H684.85L700.3 323.6L716.65 276.95H736L737.5 278.6C735.6 281.4 734.3 283.7 733.6 285.5C733 287.3 732.7 289.65 732.7 292.55C732.7 294.45 732.9 297.4 733.3 301.4L735.25 328.1ZM756.491 344.3C758.791 343.7 760.441 343.1 761.441 342.5C762.541 341.8 763.241 340.9 763.541 339.8C763.941 338.6 764.141 336.85 764.141 334.55V295.55C764.141 290.75 763.741 287.4 762.941 285.5C762.241 283.5 760.441 281.3 757.541 278.9L758.891 276.95H784.241L785.291 279.35C782.391 281.05 780.541 282.65 779.741 284.15C778.941 285.55 778.541 288.1 778.541 291.8V328.7C778.541 333.4 778.891 336.75 779.591 338.75C780.391 340.65 782.191 342.8 784.991 345.2L783.791 347H757.541L756.491 344.3ZM863.884 317L862.684 318.65C861.284 320.45 860.334 322.4 859.834 324.5C859.434 326.6 859.234 329.8 859.234 334.1V347L857.734 347.6L849.934 343.55C845.034 346.75 839.534 348.35 833.434 348.35C823.434 348.35 815.484 345.1 809.584 338.6C803.784 332.1 800.884 323.35 800.884 312.35C800.884 301.05 804.034 292.1 810.334 285.5C816.734 278.9 825.334 275.6 836.134 275.6C843.034 275.6 848.634 276.95 852.934 279.65C857.334 282.25 859.534 285.7 859.534 290C859.534 294.2 857.784 297.5 854.284 299.9C850.784 302.3 846.384 303.5 841.084 303.5C842.484 301.8 843.584 300 844.384 298.1C845.184 296.1 845.584 293.55 845.584 290.45C845.584 287.05 844.584 284.35 842.584 282.35C840.584 280.25 838.084 279.2 835.084 279.2C829.484 279.2 824.984 282.25 821.584 288.35C818.284 294.35 816.634 302.35 816.634 312.35C816.634 318.25 817.484 323.55 819.184 328.25C820.984 332.85 823.434 336.45 826.534 339.05C829.634 341.65 833.184 342.95 837.184 342.95C840.184 342.95 843.084 342.4 845.884 341.3V327.8C845.884 325.5 845.684 323.85 845.284 322.85C844.884 321.75 844.134 320.9 843.034 320.3C841.934 319.6 840.134 318.9 837.634 318.2L838.534 315.35H862.684L863.884 317ZM893.718 288.5C893.718 292.5 895.118 295.8 897.918 298.4C900.718 300.9 904.918 303.75 910.518 306.95C914.618 309.25 917.868 311.25 920.268 312.95C922.668 314.65 924.718 316.8 926.418 319.4C928.118 322 928.968 325 928.968 328.4C928.968 334.6 926.468 339.5 921.468 343.1C916.568 346.6 909.968 348.35 901.668 348.35C894.568 348.35 888.818 347 884.418 344.3C880.118 341.6 877.968 337.95 877.968 333.35C877.968 330.35 878.968 328 880.968 326.3C883.068 324.5 885.668 323.6 888.768 323.6C891.168 323.6 893.468 324.2 895.668 325.4C892.568 327 891.018 330.15 891.018 334.85C891.018 337.65 892.018 340.05 894.018 342.05C896.118 343.95 898.918 344.9 902.418 344.9C906.018 344.9 908.818 343.9 910.818 341.9C912.918 339.9 913.968 337.4 913.968 334.4C913.968 330.9 912.668 328.05 910.068 325.85C907.568 323.55 903.718 320.9 898.518 317.9C894.418 315.7 891.018 313.65 888.318 311.75C885.718 309.85 883.518 307.5 881.718 304.7C879.918 301.9 879.018 298.6 879.018 294.8C879.018 289.1 881.418 284.5 886.218 281C891.118 277.4 897.468 275.6 905.268 275.6C911.968 275.6 917.418 276.9 921.618 279.5C925.818 282 927.918 285.35 927.918 289.55C927.918 292.25 927.018 294.4 925.218 296C923.418 297.5 920.968 298.25 917.868 298.25C915.668 298.25 913.368 297.7 910.968 296.6C912.268 295.6 913.268 294.35 913.968 292.85C914.668 291.35 915.018 289.8 915.018 288.2C915.018 285.7 914.118 283.6 912.318 281.9C910.518 280.1 907.868 279.2 904.368 279.2C900.968 279.2 898.318 280.1 896.418 281.9C894.618 283.7 893.718 285.9 893.718 288.5ZM1002.12 298.85C1002.12 303.15 1001.07 306.95 998.972 310.25C996.972 313.45 994.272 315.9 990.872 317.6C987.572 319.3 984.072 320.15 980.372 320.15C976.472 320.15 972.772 319.15 969.272 317.15L969.572 315.8L972.122 315.95L974.672 315.8C978.572 315.2 981.622 313.45 983.822 310.55C986.022 307.55 987.122 303.6 987.122 298.7C987.122 293.2 985.872 288.6 983.372 284.9C980.972 281.1 977.622 279.2 973.322 279.2C971.022 279.2 969.322 279.85 968.222 281.15C967.222 282.45 966.722 283.9 966.722 285.5V327.35C966.722 331.35 967.022 334.5 967.622 336.8C968.322 339.1 969.522 341.4 971.222 343.7L972.422 345.5L971.222 347H945.122L944.072 344.3C946.672 343.6 948.472 342.95 949.472 342.35C950.572 341.75 951.322 340.9 951.722 339.8C952.122 338.7 952.322 336.95 952.322 334.55V294.65C952.322 291.15 952.022 288.5 951.422 286.7C950.922 284.8 949.672 283.25 947.672 282.05L945.872 281L946.472 279.05C949.372 278.15 953.122 277.35 957.722 276.65C962.422 275.95 966.872 275.6 971.072 275.6C981.272 275.6 988.972 277.75 994.172 282.05C999.472 286.25 1002.12 291.85 1002.12 298.85ZM1048.15 348.35C1037.75 348.35 1029.5 345.1 1023.4 338.6C1017.3 332.1 1014.25 323.25 1014.25 312.05C1014.25 300.85 1017.3 292 1023.4 285.5C1029.5 278.9 1037.75 275.6 1048.15 275.6C1058.55 275.6 1066.8 278.9 1072.9 285.5C1079.1 292 1082.2 300.85 1082.2 312.05C1082.2 323.15 1079.1 332 1072.9 338.6C1066.8 345.1 1058.55 348.35 1048.15 348.35ZM1047.7 344.9C1051.4 344.9 1054.65 343.55 1057.45 340.85C1060.35 338.05 1062.6 334.2 1064.2 329.3C1065.8 324.4 1066.6 318.75 1066.6 312.35C1066.6 305.95 1065.8 300.2 1064.2 295.1C1062.7 290 1060.55 286.05 1057.75 283.25C1055.05 280.35 1051.95 278.9 1048.45 278.9C1044.75 278.9 1041.45 280.35 1038.55 283.25C1035.65 286.05 1033.4 290.05 1031.8 295.25C1030.2 300.35 1029.4 306.2 1029.4 312.8C1029.4 322.5 1031.05 330.3 1034.35 336.2C1037.65 342 1042.1 344.9 1047.7 344.9ZM1129.92 334.55C1129.92 336.85 1130.12 338.6 1130.52 339.8C1131.02 340.9 1131.82 341.75 1132.92 342.35C1134.02 342.95 1135.82 343.6 1138.32 344.3L1137.27 347H1111.17L1109.97 345.5L1111.17 343.7C1112.87 341.4 1114.02 339.1 1114.62 336.8C1115.32 334.4 1115.62 331.25 1115.52 327.35V287C1115.52 284.5 1115.27 282.85 1114.77 282.05C1114.37 281.15 1113.52 280.7 1112.22 280.7H1110.57C1107.17 280.7 1104.62 281.75 1102.92 283.85C1101.22 285.85 1099.47 289.5 1097.67 294.8L1094.67 293.75V275L1096.17 273.65L1097.97 275C1099.87 276.3 1103.57 276.95 1109.07 276.95H1136.52C1142.02 276.95 1145.72 276.3 1147.62 275L1149.42 273.65L1151.07 275V293.75L1147.92 294.8C1146.02 289.3 1144.22 285.6 1142.52 283.7C1140.92 281.7 1138.47 280.7 1135.17 280.7H1133.22C1131.92 280.7 1131.02 281.15 1130.52 282.05C1130.12 282.85 1129.92 284.5 1129.92 287V334.55ZM1219.83 278.6L1218.33 280.25C1215.63 283.55 1213.33 287 1211.43 290.6L1197.78 316.7V334.55C1197.78 336.85 1197.98 338.6 1198.38 339.8C1198.88 340.9 1199.68 341.75 1200.78 342.35C1201.88 342.95 1203.63 343.6 1206.03 344.3L1205.13 347H1178.88L1177.68 345.5L1178.88 343.7C1180.58 341.5 1181.73 339.25 1182.33 336.95C1183.03 334.55 1183.38 331.35 1183.38 327.35V317L1169.13 290.9C1167.53 287.7 1166.03 285.25 1164.63 283.55C1163.23 281.75 1161.48 280.1 1159.38 278.6L1160.73 276.95H1188.18L1188.93 279.65L1186.68 280.25C1183.78 280.85 1182.33 282 1182.33 283.7C1182.33 284.3 1182.58 285.15 1183.08 286.25C1183.58 287.35 1184.33 288.85 1185.33 290.75L1195.53 309.95L1206.33 289.4C1207.13 288.1 1207.53 286.8 1207.53 285.5C1207.53 284.2 1207.13 283.1 1206.33 282.2C1205.53 281.2 1204.53 280.55 1203.33 280.25L1200.48 279.65L1201.38 276.95H1218.63L1219.83 278.6Z" fill="#FDFDFD"/>
</svg>
